<?xml version="1.0" encoding="UTF-8"?>
<svg id="Layer_2" data-name="Layer 2" xmlns="http://www.w3.org/2000/svg" viewBox="0 0 235.17 55.46">
  <defs>
    <style>
      .cls-1 {
        fill: #c1272d;
      }

      .cls-2 {
        fill: #f7931e;
      }
    </style>
  </defs>
  <g id="Layer_1-2" data-name="Layer 1">
    <g>
      <g>
        <path d="M118.44,10.21c-1.17,0-2.23.71-2.64,1.81,0,0,0,.01,0,.02l-.89,2.4-.7,1.9h-.07l-4.55,10.77c1.47-.44,3.05-.68,4.71-.68,2.84,0,5.4.69,7.57,1.94l5.04-11.83h.09l.83-2.1,1.67-4.23h-11.05Z"/>
        <path d="M99.15,41.16c0-3.28.97-6.24,2.65-8.64l-5.2-14.47c-.31-.86-.68-1.69-1.11-2.48,0-.02-.01-.03-.01-.04-.1-.29-.3-.63-.56-.99-.01-.02-.03-.04-.04-.06-1.47-2.03-4.85-4.94-5.1-5.15h-.01c-2.04-1.39-4.36-2.37-6.83-2.87-.06-.01-.13-.02-.19-.03-.09-.01-.17-.03-.26-.04l-29.32-.29h-1.31c-.28.03-.55.08-.82.15-.85.22-1.67.6-2.39,1.02-.03.01-.05.02-.08.05-1.52,1.02-3.09,2.5-4.28,3.72-.17.18-.33.35-.48.51-.1.1-.19.2-.28.3-.34.37-.63.7-.84.94-.07.08-.13.15-.18.21-.13.15-.2.23-.2.23-.32.37-.63.73-.94,1.1-.48.57-.96,1.15-1.43,1.73-2.56,3.18-4.87,6.46-6.9,9.77-.03.05-.06.09-.08.14-.42.69-.83,1.38-1.22,2.07-1.13,1.97-2.16,3.95-3.08,5.92-.39-2.48-1.34-4.83-2.66-6.93-.39-.63-.83-1.24-1.29-1.82-.03-.04-.06-.08-.09-.12-2.2-2.75-5.06-4.93-8.08-6.25-.58-.26-1.18-.49-1.77-.68-5.77-1.84-11.79-.4-14.77,6.35,5.22-.29,8.73,1.37,11.33,4.05.03.03.07.07.1.11.48.49.92,1.02,1.34,1.58.03.04.06.08.09.13,2.76,3.73,4.4,8.71,6.39,13.21l.07.15.49,1.1s.02.03.02.04c.06.12.11.24.18.36,0,.02,0,.03,0,.04.12.25.24.49.36.73.13.27.28.52.44.77.09.14.18.27.27.4,3.07,4.25,9.51,4.69,13.05.51.14-.17.28-.34.42-.51.11-.13.22-.26.33-.4.39-.48.78-.98,1.16-1.5.01-.01.02-.02.03-.04.09-.12.18-.24.27-.36.01-.01.02-.02.03-.04.5-.67,1-1.37,1.51-2.1.02-.04.04-.07.07-.11,2.22-3.24,4.5-6.94,7-10.92.03-.05.06-.09.09-.14.4-.64.81-1.29,1.22-1.94.03-.05.06-.09.09-.14,1.47-2.3,3.02-4.68,4.68-7.1.19-.27.39-.55.58-.83.7-.95,3.2-4.06,5.65-4.08h13.46c4.26.24,12.35,1.59,15.74,8.19.28.55.52,1,.73,1.37l8.09,21.02c1.46,3.79,5.06,6.28,9.07,6.28.72,0,1.43-.08,2.12-.24-4.53-2.49-7.32-7.14-7.32-12.94Z"/>
      </g>
      <g>
        <path class="cls-1" d="M16.07,42.45c-1.27-3.1-2.48-6.04-4.04-8.45l-6.89,20.83c-.1.31.13.63.46.63h10.09c.21,0,.39-.13.45-.33l2.3-7.24c-.85-1.76-1.62-3.62-2.37-5.44Z"/>
        <path class="cls-1" d="M52.21,54.83l-6.39-19.4c-2.61,4.16-4.93,7.91-7.25,11.16l2.64,8.54c.07.2.25.33.46.33h10.09c.32,0,.55-.32.45-.63Z"/>
        <path class="cls-1" d="M36.72,5.79C35.38,1.72,31.16-.78,26.77.22c-2.93.67-5.22,2.98-6.16,5.84l-3.46,10.47c3.03,1.3,5.85,3.38,8.13,5.94l3.43-11.09,3.59,11.59c2.08-3.26,4.41-6.45,6.94-9.51l-2.52-7.67Z"/>
      </g>
      <path class="cls-1" d="M69.04,21.22h-9.77c-2.3,0-4.17,1.86-4.17,4.17v25.9c0,2.3,1.87,4.17,4.17,4.17h9.77c11.09,0,18.77-6.78,18.77-17.1s-7.68-17.14-18.77-17.14ZM69.04,49.04h-.72v-21.41h.72c7.27,0,11.09,4.68,11.09,10.73s-4.09,10.68-11.09,10.68Z"/>
      <polygon class="cls-2" points="137.17 43.09 137.17 55.46 131.17 55.46 131.17 48.38 137.17 43.09"/>
      <polygon class="cls-2" points="131.17 36.46 137.17 30.46 131.17 30.46 131.17 36.46"/>
      <path class="cls-2" d="M153.2,42.81c.19-5.86-2.13-10.86-8.62-11.18h-.19c-10.58-.16-17.7,14.2-27.42,16.45-3.91.76-8.86-1.84-4.8-3.79,3.56-2.14,15.21-1.46,13.55-7.56-3.07-9.92-16.45-11.43-22.21-2.83-5.71,8.42.55,21.19,11.12,20.39,8.02-.26,13.36-6.56,18.94-11.63,3.42-3.38,10.06-8.44,12.67-2.11.66,1.68.7,4.03.78,6.26h0v8.64h6.15v-6.65c.13-1.86.02-3.93.03-6ZM107.74,40.04c-.23-.2-.3-.56-.26-1.03.29-2.55,2.46-4.8,5.02-5.4l.22-.05c2.1-.48,4.14-.12,5.68,1.27,1.28,1.12,2.34,2.86.02,3.33-2.12.52-6.35,1.43-8.71,1.95-.65.11-1.45.32-1.96-.07Z"/>
      <path class="cls-1" d="M235.17,43.09c0-4.56-1.64-8.31-4.44-10.72-.49-.42-1.02-.81-1.58-1.14-1.92-1.16-4.23-1.8-6.82-1.8-2.1,0-4.03.42-5.72,1.17-1.01.45-1.94,1.01-2.77,1.68-.69.55-1.31,1.16-1.86,1.84-.5.61-.94,1.26-1.32,1.96-1.02,1.87-1.58,4.04-1.58,6.34,0,5.83,3.16,10.12,7.92,11.99.76.3,1.55.53,2.38.71,1.07.22,2.2.34,3.37.34,3.98,0,8.01-1.18,10.55-3.44l-2.97-4.21c-1.65,1.54-4.67,2.46-6.84,2.46-.13,0-.26,0-.39,0-.7-.03-1.35-.12-1.95-.28-2.94-.76-4.69-2.94-5.03-5.46h19.04v-1.44ZM216.03,40.11c.32-2.46,2.12-5.49,6.31-5.49,2.14,0,3.64.72,4.64,1.73.57.57.98,1.24,1.25,1.92.25.62.39,1.26.42,1.84h-12.62Z"/>
      <path d="M186.53,49.66c-2.86,0-4.72-1.13-4.72-4.57v-11.26h0v-3.63s0-.03,0-.05v-.12h-.01c-.09-1.4-1.24-2.5-2.66-2.49l-7.55.04h-5.22v-12.56c0-.66-.54-1.2-1.2-1.2h-6.07v13.76h-4.55v6.25h4.55v14.19c0,4.84,2.73,7.43,7.78,7.43,3.01,0,4.94-.79,6.02-1.75l-1.53-5.41c-.4.39-1.42.79-2.5.79-1.59,0-2.5-1.3-2.5-2.98v-12.28h8.7v13.82c0,4.83,2.65,7.81,8.27,7.81,4.19,0,7.27-1.85,9.02-3.75v-4.88c-1.17,1.44-3.24,2.83-5.84,2.83Z"/>
      <path d="M200.93,33.05v5.03c.3-.42.73-.82,1.24-1.18.72-.5,1.6-.91,2.51-1.21.87-.27,1.77-.43,2.57-.43.74,0,1.37.05,1.85.15v-6.36c-.41,0-.83.03-1.23.09-2.75.38-5.37,1.99-6.94,3.91Z"/>
      <rect x="193.2" y="30.66" width="6.73" height="24.8"/>
    </g>
  </g>
</svg>