<?xml version="1.0" encoding="UTF-8"?>
<svg id="Layer_2" data-name="Layer 2" xmlns="http://www.w3.org/2000/svg" viewBox="0 0 82.18 51.57">
  <g id="Layer_1-2" data-name="Layer 1">
    <path d="M8.97,46.53l4.78-12.15,6.93-17.5.35-.92h0l3.68-9.31,3.65,9.31,7.24,18.42,1.87,4.8c1.04,3.18,4.67,2.82,4.67,2.82h10.59c9.62,0,15.9-6.64,15.9-15.47s-6.28-15.53-15.9-15.53h-10.52l3.64,3.44h6.88c7.67,0,11.9,5.39,11.9,12.09s-4.37,12.03-11.9,12.03h-7.14c-1.68.12-1.89-1.22-1.89-1.22L28.66.01h-7.96L0,51.53h23.7v-5h-14.73Z"/>
    <path d="M55.76,0h-17.5l6.08,5.72h11.42c12.74,0,19.77,8.96,19.77,20.08s-7.26,20.01-19.77,20.01h-11.78s-.07.02-.12.02c0,0,0,0-.01,0,0,0,0,0,0,0,0,0,0,0,0,0,0,0,0,0-.01,0,0,0,0,0,0,0,0,0,0,0,0,0-.01,0-.02,0-.03,0,0,0,0,0,0,0-.01,0-.02,0-.03,0-5.5.79-8.07-1.56-8.07-1.56l-7.89-18.97-5.69,2.49,7.37,18.38c4.04,6.18,8.67,5.35,8.67,5.35h17.61c15.99,0,26.42-11.05,26.42-25.73S71.75,0,55.76,0ZM35.69,44.28l.13.17c-.07-.07-.1-.12-.1-.12l-.02-.06Z"/>
  </g>
</svg>